<?xml version="1.0"?>
<svg xmlns="http://www.w3.org/2000/svg" viewBox="0 0 512 512" width="512" height="512"><g id="Outline"><circle cx="96" cy="156" r="12"/><circle cx="151.799" cy="156" r="12"/><path d="M116.889,183H112v16h4.889a64.729,64.729,0,0,0,30.95-7.981l-7.678-14.038A48.674,48.674,0,0,1,116.889,183Z"/><path d="M440,248H400V211.876A72.274,72.274,0,0,0,432,152v-.29a28,28,0,0,0,0-55.42V96l-.052-34.253c0-.041,0-.082,0-.122A40.656,40.656,0,0,0,429,47.291l-.022-.045A48.076,48.076,0,0,0,384,16H337.889A36.7,36.7,0,0,0,307,32.707C298.61,34.973,288,43.189,288,64V96.29a28,28,0,0,0,0,55.42V152a72.27,72.27,0,0,0,32,59.875V240a56.063,56.063,0,0,0-56-56,15.883,15.883,0,0,0-8,2.165A15.883,15.883,0,0,0,248,184a55.82,55.82,0,0,0-40,16.862V183.569a27.935,27.935,0,0,0-.021-39.16c.007-.136.021-.271.021-.409V120a88,88,0,0,0-176,0V268.245A47.546,47.546,0,0,0,16,304V464a7.961,7.961,0,0,0,.442,2.6A34.977,34.977,0,0,0,50.925,496H455.581a40.459,40.459,0,0,0,40.408-40H496V304A56.063,56.063,0,0,0,440,248Zm-8-135.314a12,12,0,0,1,0,22.628ZM288,135.314a12,12,0,0,1,0-22.628Zm48,84.573a72.078,72.078,0,0,0,48,0V248H336ZM399,264a32.058,32.058,0,0,1-31,24h-8.679a47.866,47.866,0,0,0-11.582-24ZM416,81.191,408.646,72h7.332Zm-13.069-42.97A32.1,32.1,0,0,1,414.988,56h-19.17ZM365.416,32H384a32.187,32.187,0,0,1,4.083.26L378.584,56H355.816Zm-27.527,0h10.3l-9.6,24h-6.3L321.522,39.861A20.819,20.819,0,0,1,337.889,32ZM304,64c0-8.776,2.435-12.744,4.694-14.537l9.4,14.107L304,81.193Zm0,88V106.806L331.845,72h56.31L416,106.807V152a56,56,0,1,1-112,0Zm16,113.013A32.054,32.054,0,0,1,344,296v30.987A32.054,32.054,0,0,1,320,296Zm-3.514,63.247A24.035,24.035,0,0,0,296,352v8h-8V343.424a64.242,64.242,0,0,0,22.9-22.652A48.3,48.3,0,0,0,316.486,328.26ZM264,200a40.045,40.045,0,0,1,40,40v2.215l-40-22.858Zm-56,40a40.045,40.045,0,0,1,40-40v19.357l-40,22.858Zm0,20.643,48-27.429,48,27.429V288a48.262,48.262,0,0,1-27.434,43.385,47.895,47.895,0,0,1-47.989-3.987A48.071,48.071,0,0,1,208,288ZM277.81,375.7a22.5,22.5,0,0,1-4.53,8.343c-.054,0-.107-.009-.16-.012a23.994,23.994,0,0,0-18.938,7.9,22.7,22.7,0,0,1-19.991-16.23A8,8,0,0,0,240,368V349.966a63.947,63.947,0,0,0,32,0V368A8,8,0,0,0,277.81,375.7Zm-57.464,8.71a23.875,23.875,0,0,0-5.453-.379A23.406,23.406,0,0,0,208,385.412V376h9.754l.665,2.66A39,39,0,0,0,220.346,384.406ZM213.679,336H191.553q-.72-1.323-1.5-2.612a48.377,48.377,0,0,0,11.016-12.566A64.076,64.076,0,0,0,213.679,336Zm-55.221-64a47.655,47.655,0,0,0-4.615,10.863,32.522,32.522,0,0,1-3.22,3.76A31.787,31.787,0,0,1,128,296h-8a32.058,32.058,0,0,1-30.988-24ZM104,256V236.991a67.983,67.983,0,0,0,40,0V256Zm44.254-38A52,52,0,0,1,72,172V147a174.223,174.223,0,0,0,76.073-43.337c4.44,13.2,13.064,32.572,27.927,44.387V172A51.9,51.9,0,0,1,148.254,218ZM160,229.69a67.814,67.814,0,0,0,29.01-37.716,28.027,28.027,0,0,0,2.99-.264v56.969A47.711,47.711,0,0,0,173.507,256H160ZM168,296a32.054,32.054,0,0,1,24-30.987V296a32.054,32.054,0,0,1-24,30.987Zm32-132a12.02,12.02,0,0,1-8,11.314V152.686A12.02,12.02,0,0,1,200,164ZM48,120a72,72,0,0,1,144,0v16h-5.447C167.07,121.2,159.915,86.78,159.845,86.431a8,8,0,0,0-13.83-3.74C109.676,123.664,65.754,133.152,48,135.344Zm8,32.686v22.628a12,12,0,0,1,0-22.628Zm-8,36.607a27.8,27.8,0,0,0,10.989,2.681A67.807,67.807,0,0,0,88,229.691V256H64a47.852,47.852,0,0,0-16,2.736ZM32,304a31.753,31.753,0,0,1,12.738-25.553c.04-.029.08-.058.119-.089h0A31.758,31.758,0,0,1,64,272h8.679A48.07,48.07,0,0,0,120,312h8a47.684,47.684,0,0,0,24-6.427V336a8,8,0,0,0,8,8,47.793,47.793,0,0,0,16.092-2.783,51.87,51.87,0,0,1,7.352,21.845c-.548.21-1.1.421-1.637.652a46.449,46.449,0,0,0-25.966,28.6,44.672,44.672,0,0,0-1.432,5.738l-5.378,29.585-21.518,4.3L80,428.283V400a8,8,0,0,0-3.2-6.4,37.97,37.97,0,0,1-12.816-26.112,37.318,37.318,0,0,1,.248-7.282,41.524,41.524,0,0,1,3.908-12.695,62.3,62.3,0,0,1,9.807-14.158L66.054,322.647A82.465,82.465,0,0,0,56.176,336H32Zm0,48H49.548a54.153,54.153,0,0,0-1.178,6.105,53.253,53.253,0,0,0-.354,10.4A54.187,54.187,0,0,0,64,403.568v23.485l-10.4-.8A35.05,35.05,0,0,0,32,431.74ZM192,480H50.925A18.946,18.946,0,0,1,32,461.075a18.929,18.929,0,0,1,18.877-18.927q.745,0,1.5.058l75.01,5.771a8.153,8.153,0,0,0,2.183-.132l38.236-7.648L192,446.246Zm0-80.662-4.866,29.2-17.194-4.3a7.993,7.993,0,0,0-3.509-.084l-.525.105,4.249-23.369a29.059,29.059,0,0,1,.934-3.733A30.261,30.261,0,0,1,192,377.071Zm7.179-39.316A77.894,77.894,0,0,0,197.672,352H216v8H200C199.726,360,199.453,360.017,199.179,360.022ZM248,480H208V456h40Zm15.978-55.979c-.4,3.017.066,6.079-.046,9.12s-.949,6.292-3.316,8.2c-1.973-1.312-4.5-1.356-6.866-1.356L226.218,440c-1.784-2.182-2.219-5.166-2.21-7.985s.391-5.657-.041-8.441-1.881-5.627-4.46-6.763c-1.811-.8-3.9-.649-5.794-1.211a7.956,7.956,0,1,1,9.893-9.872c.486,1.654.427,3.435.961,5.074a7.411,7.411,0,0,0,4.214,4.51,14.651,14.651,0,0,0,5.51.707l19.343,0a14.825,14.825,0,0,0,5.594-.72,7.489,7.489,0,0,0,4.284-4.679c.488-1.594.425-3.314.881-4.918,2.411-8.484,15.408-6.524,15.615,2.106a8.114,8.114,0,0,1-5.676,7.753c-1.844.536-3.861.393-5.633,1.134C265.9,417.866,264.385,420.988,263.978,424.021ZM304,480H272V468a27.86,27.86,0,0,0-2.736-12.1A32.116,32.116,0,0,0,280,432v-1.37a23.33,23.33,0,0,0,3.987-1.845,23.944,23.944,0,0,0,4.389-38.28,38.535,38.535,0,0,0,5.205-11.845l.665-2.66H304Zm32,0H320V377.371A24.042,24.042,0,0,1,336,400Zm16,0V400a39.832,39.832,0,0,0-1.609-11.2L423.355,480Zm128-24.419a24.419,24.419,0,0,1-43.486,15.255L350.247,363A8,8,0,0,0,344,360H312v-8a8.009,8.009,0,0,1,8-8h31.437a16.174,16.174,0,0,1,10.165,3.609l109.377,88.87A24.319,24.319,0,0,1,480,455.431Zm0-32.389-32-26V352h32ZM480,336H440a8,8,0,0,0-8,8v40.192l-60.309-49A32.168,32.168,0,0,0,360,329.175V304h8a48.011,48.011,0,0,0,47.326-40H440a40.045,40.045,0,0,1,40,40Z"/><rect x="224" y="272" width="16" height="16"/><rect x="272" y="272" width="16" height="16"/><path d="M256,318.628a30.428,30.428,0,0,0,21.657-8.972l-11.314-11.312a14.628,14.628,0,0,1-20.686,0l-11.314,11.312A30.428,30.428,0,0,0,256,318.628Z"/><circle cx="388" cy="124" r="12"/><circle cx="332" cy="124" r="12"/><path d="M344,176h6.111a84.213,84.213,0,0,0,37.467-8.845l-7.156-14.31A68.138,68.138,0,0,1,350.111,160H344Z"/></g></svg>
